<?xml version="1.0" encoding="utf-8"?>
<svg width="48px" height="48px" viewBox="0 0 48 48" version="1.1" xmlns:xlink="http://www.w3.org/1999/xlink" xmlns="http://www.w3.org/2000/svg">
  <defs>
    <path d="M0 0L48 0L48 48L0 48L0 0Z" id="path_1" />
    <clipPath id="mask_1">
      <use xlink:href="#path_1" />
    </clipPath>
  </defs>
  <g id="Discord-icon">
    <path d="M0 0L48 0L48 48L0 48L0 0Z" id="Background" fill="none" fill-rule="evenodd" stroke="none" />
    <g clip-path="url(#mask_1)">
      <path d="M40 12C40 12 35.415 8.412 30 8L29.512 8.976C34.408 10.174 36.654 11.891 39 14C34.955 11.935 30.961 10 24 10C17.039 10 13.045 11.935 9 14C11.346 11.891 14.018 9.985 18.488 8.976L18 8C12.319 8.537 8 12 8 12C8 12 2.879 19.425 2 34C7.162 39.953 15 40 15 40L16.639 37.815C13.857 36.848 10.715 35.121 8 32C11.238 34.45 16.125 37 24 37C31.875 37 36.762 34.45 40 32C37.285 35.121 34.143 36.848 31.361 37.815L33 40C33 40 40.838 39.953 46 34C45.121 19.425 40 12 40 12L40 12ZM17.5 30C15.567 30 14 28.209 14 26C14 23.791 15.567 22 17.5 22C19.433 22 21 23.791 21 26C21 28.209 19.433 30 17.5 30L17.5 30ZM30.5 30C28.567 30 27 28.209 27 26C27 23.791 28.567 22 30.5 22C32.433 22 34 23.791 34 26C34 28.209 32.433 30 30.5 30L30.5 30Z" id="Shape" fill="#8C9EFF" fill-rule="evenodd" stroke="none" />
    </g>
  </g>
</svg>