<?xml version="1.0" encoding="utf-8"?>
<svg width="48px" height="48px" viewBox="0 0 48 48" version="1.1" xmlns:xlink="http://www.w3.org/1999/xlink" xmlns="http://www.w3.org/2000/svg">
  <defs>
    <path d="M0 0L48 0L48 48L0 48L0 0Z" id="path_1" />
    <clipPath id="mask_1">
      <use xlink:href="#path_1" />
    </clipPath>
  </defs>
  <g id="Facebook-icon">
    <path d="M0 0L48 0L48 48L0 48L0 0Z" id="Background" fill="none" fill-rule="evenodd" stroke="none" />
    <g clip-path="url(#mask_1)">
      <path d="M42 37C42 39.762 39.762 42 37 42L11 42C8.239 42 6 39.762 6 37L6 11C6 8.238 8.239 6 11 6L37 6C39.762 6 42 8.238 42 11L42 37L42 37Z" id="Shape" fill="#3F51B5" stroke="none" />
      <path d="M34.368 25L31 25L31 38L26 38L26 25L23 25L23 21L26 21L26 18.59C26.002 15.082 27.459 13 31.592 13L35 13L35 17L32.713 17C31.104 17 31 17.6 31 18.723L31 21L35 21L34.368 25L34.368 25Z" id="Shape" fill="#FFFFFF" stroke="none" />
    </g>
  </g>
</svg>