<?xml version="1.0" encoding="utf-8"?>
<svg width="48px" height="48px" viewBox="0 0 48 48" version="1.1" xmlns:xlink="http://www.w3.org/1999/xlink" xmlns="http://www.w3.org/2000/svg">
  <defs>
    <path d="M0 0L48 0L48 48L0 48L0 0Z" id="path_1" />
    <clipPath id="mask_1">
      <use xlink:href="#path_1" />
    </clipPath>
  </defs>
  <g id="Phoenix-Squadron-icon">
    <path d="M0 0L48 0L48 48L0 48L0 0Z" id="Background" fill="none" fill-rule="evenodd" stroke="none" />
    <g clip-path="url(#mask_1)">
      <path d="M24.1758 6.15432C19.7223 6.04182 15.2625 7.54789 11.751 10.2764C7.58698 13.4804 4.797 18.4806 4.5 23.7471L4.5 26.1143C4.6545 28.5593 5.30609 30.9468 6.41309 33.1338C7.98509 36.2043 10.3739 38.7825 13.3184 40.584C18.8564 44.058 26.1349 44.4304 32.0479 41.6944C35.7618 40.0039 38.9259 37.1112 40.8984 33.5352C42.1584 31.2597 42.9193 28.7444 43.1338 26.1524C43.1713 25.1909 43.1713 24.2281 43.1338 23.2666C42.8803 20.4046 42.0661 17.5737 40.4971 15.1572C41.6206 17.6292 41.9337 20.3678 41.5107 23.0498C41.1072 25.3268 40.079 27.4479 38.54 29.1729C38.7005 28.3479 38.9849 27.5547 39.1289 26.7237C39.3089 25.6557 39.4035 24.5619 39.2519 23.4834C39.1125 21.8874 38.9336 19.8514 38.3291 18.3799C38.3366 18.9454 38.2901 19.5121 38.3291 20.0791C38.4326 22.6576 37.4585 25.7843 35.915 27.8633C34.4375 29.8988 32.2743 31.5196 29.7979 32.0821C28.7089 32.3056 27.4916 32.3028 26.5166 31.6983C25.5971 31.1448 25.0845 30.0921 24.9375 29.0586C24.732 27.4116 25.1231 25.7404 25.8281 24.2539C26.7056 22.4179 28.0561 20.8484 29.7451 19.7129C30.0946 19.4684 30.5079 19.2933 30.7734 18.9453C31.7289 17.7603 32.7062 16.5897 33.8027 15.5322C34.9082 14.4102 35.9654 13.4063 37.1279 12.4883C34.9259 12.4268 33.1158 13.3225 31.1748 14.2285C28.8033 15.394 26.554 16.7938 24.46 18.4063C23.128 19.4323 22.4025 20.4384 20.874 21.1719C19.992 21.6069 18.9894 21.7155 18.0234 21.585C19.5294 22.1655 21.2034 21.9929 22.7139 21.5264C23.6514 21.2279 24.0311 20.9999 24.8936 20.5274C25.0376 20.4209 25.2077 20.4814 25.3682 20.5069C25.3607 20.8354 25.4584 21.2277 25.1719 21.4707C24.4669 22.2027 23.6249 22.7873 22.7549 23.3018C21.7334 23.8823 20.6289 24.3492 19.4619 24.5352C18.4869 24.7212 17.4779 24.5413 16.6289 24.0283C15.5264 23.3353 15.1048 21.9511 15.1318 20.7061C15.2098 18.8731 15.9526 17.1228 16.9951 15.6348C18.5836 13.4103 20.9127 11.7418 23.5137 10.9063C24.5622 10.5268 25.6708 10.3897 26.7598 10.1797C25.2763 10.0012 23.7742 9.87566 22.2832 10.0362C20.7922 10.1547 19.3285 10.5613 17.959 11.1553C17.5645 11.3203 17.1795 11.5227 16.752 11.5977C18.927 9.17818 21.9612 7.53041 25.1982 7.1299C27.0387 6.83591 28.1775 6.75404 30 7.10354C27.9 6.35054 26.4093 6.12582 24.1758 6.15432L24.1758 6.15432ZM30.5068 15.1582C30.4243 15.6626 30.1026 16.0598 29.7246 16.2286C29.3346 16.4258 28.9316 16.5691 28.5176 16.6582C29.1476 16.1064 29.8288 15.6361 30.5068 15.1582L30.5068 15.1582Z" id="Shape" fill="#FFFFFF" fill-rule="evenodd" stroke="none" />
    </g>
  </g>
</svg>