<?xml version="1.0" encoding="utf-8"?>
<svg width="48px" height="48px" viewBox="0 0 48 48" version="1.1" xmlns:xlink="http://www.w3.org/1999/xlink" xmlns="http://www.w3.org/2000/svg">
  <defs>
    <path d="M0 0L48 0L48 48L0 48L0 0Z" id="path_1" />
    <clipPath id="mask_1">
      <use xlink:href="#path_1" />
    </clipPath>
  </defs>
  <g id="Github-icon">
    <path d="M0 0L48 0L48 48L0 48L0 0Z" id="Background" fill="none" fill-rule="evenodd" stroke="none" />
    <g clip-path="url(#mask_1)">
      <path d="M24 6C14.0566 6 6 14.0566 6 24C6 31.9512 11.1563 38.7012 18.3105 41.0801C19.2129 41.2441 19.541 40.6934 19.541 40.2129C19.541 39.7852 19.5234 38.6543 19.5176 37.1543C14.5078 38.2383 13.4531 34.7402 13.4531 34.7402C12.6328 32.6602 11.4551 32.1035 11.4551 32.1035C9.82031 30.9902 11.5781 31.0137 11.5781 31.0137C13.3828 31.1426 14.332 32.8652 14.332 32.8652C15.9375 35.6191 18.5449 34.8223 19.5703 34.3652C19.7344 33.1992 20.2031 32.4082 20.7129 31.957C16.7168 31.5059 12.5156 29.959 12.5156 23.0625C12.5156 21.0938 13.2188 19.4883 14.3672 18.2285C14.1855 17.7773 13.5645 15.9434 14.543 13.4648C14.543 13.4648 16.0547 12.9844 19.4941 15.3105C20.9297 14.9121 22.4707 14.7129 24 14.707C25.5293 14.7129 27.0703 14.9121 28.5059 15.3105C31.9453 12.9844 33.4512 13.4648 33.4512 13.4648C34.4355 15.9434 33.8203 17.7773 33.6328 18.2285C34.7871 19.4883 35.4785 21.0938 35.4785 23.0625C35.4785 29.9766 31.2715 31.4941 27.2637 31.9453C27.9082 32.4961 28.4824 33.5977 28.4824 35.2734C28.4824 37.6816 28.4648 39.6211 28.4648 40.2129C28.4648 40.6934 28.7871 41.2559 29.7012 41.0801C36.8496 38.6953 42 31.9512 42 24C42 14.0566 33.9434 6 24 6L24 6Z" id="Shape" fill="#FFFFFF" fill-rule="evenodd" stroke="none" />
    </g>
  </g>
</svg>