<?xml version="1.0" encoding="utf-8"?>
<svg width="48px" height="48px" viewBox="0 0 48 48" version="1.1" xmlns:xlink="http://www.w3.org/1999/xlink" xmlns="http://www.w3.org/2000/svg">
  <defs>
    <path d="M0 0L48 0L48 48L0 48L0 0Z" id="path_1" />
    <clipPath id="mask_1">
      <use xlink:href="#path_1" />
    </clipPath>
  </defs>
  <g id="Home-icon">
    <path d="M0 0L48 0L48 48L0 48L0 0Z" id="Background" fill="#FFFFFF" fill-opacity="0" fill-rule="evenodd" stroke="none" />
    <g clip-path="url(#mask_1)">
      <path d="M42 39L6 39L6 23L24 6L42 23L42 39Z" id="Shape" fill="#E8EAF6" stroke="none" />
      <path d="M39 21L34 16L34 9L39 9L39 21ZM6 39L42 39L42 44L6 44L6 39Z" id="Shape" fill="#C5CAE9" fill-rule="evenodd" stroke="none" />
      <path d="M24 4.30005L4 22.9L6 25.1L24 8.40005L42 25.1L44 22.9L24 4.30005Z" id="Shape" fill="#B71C1C" stroke="none" />
      <path d="M18 28L30 28L30 44L18 44L18 28Z" id="Shape" fill="#D84315" stroke="none" />
      <path d="M21 17L27 17L27 23L21 23L21 17Z" id="Shape" fill="#01579B" stroke="none" />
      <path d="M27.5 35.5C27.2 35.5 27 35.7 27 36L27 38C27 38.3 27.2 38.5 27.5 38.5C27.8 38.5 28 38.3 28 38L28 36C28 35.7 27.8 35.5 27.5 35.5L27.5 35.5Z" id="Shape" fill="#FF8A65" stroke="none" />
    </g>
  </g>
</svg>