<?xml version="1.0" encoding="utf-8"?>
<svg width="48px" height="48px" viewBox="0 0 48 48" version="1.1" xmlns:xlink="http://www.w3.org/1999/xlink" xmlns="http://www.w3.org/2000/svg">
  <defs>
    <path d="M0 0L48 0L48 48L0 48L0 0Z" id="path_1" />
    <clipPath id="mask_1">
      <use xlink:href="#path_1" />
    </clipPath>
  </defs>
  <g id="Mixcloud-icon">
    <path d="M0 0L48 0L48 48L0 48L0 0Z" id="Background" fill="none" fill-rule="evenodd" stroke="none" />
    <g clip-path="url(#mask_1)">
      <path d="M19.2686 9C13.8326 9 9.0112 12.496 7.2832 17.584C3.1702 18.1855 0 21.7113 0 25.9893C0 30.6723 3.81525 34.5 8.53125 34.5L30.3516 34.5C34.2846 34.5 37.5 31.3021 37.5 27.3691C37.5 23.9626 35.0814 21.1114 31.8984 20.4199C31.2669 14.0269 25.8476 9 19.2686 9L19.2686 9ZM19.2744 12C24.5769 12 28.8779 16.3477 28.8779 21.6592C28.8779 22.7002 28.7111 23.7266 28.3916 24.7061C27.7076 26.8181 30.8544 27.6894 31.4619 25.7139C31.6749 25.0869 31.8417 24.43 31.9482 23.7715C33.4227 24.337 34.5 25.7748 34.5 27.4893C34.5 29.6928 32.7078 31.5 30.4893 31.5L8.4082 31.5C5.4307 31.5 3 29.083 3 26.083C3 23.083 5.4307 20.6631 8.4082 20.6631C9.8362 20.6631 11.1895 21.2323 12.208 22.2568C13.7275 23.7868 16.0394 21.4742 14.5049 19.9277C13.3964 18.8252 12.0276 18.0602 10.5381 17.6777C12.0576 14.2787 15.4749 12 19.2744 12L19.2744 12ZM44.2034 18.0123C43.0389 17.8579 41.7993 19.1866 42.6712 20.4556C44.0992 22.6036 44.8801 25.1359 44.8801 27.7564C44.8801 30.3619 44.0992 32.9089 42.6712 35.0719C41.9497 36.1174 42.7439 37.5006 43.9514 37.5006C44.4674 37.5006 44.9549 37.2502 45.2639 36.8092C47.0594 34.1302 48.0003 30.9949 48.0003 27.7564C48.0003 24.5029 47.058 21.3673 45.261 18.7183C44.9704 18.2803 44.5916 18.0638 44.2034 18.0123L44.2034 18.0123ZM39.7152 20.5512C38.5422 20.3985 37.3111 21.7156 38.183 22.9857C39.1535 24.3987 39.639 26.0483 39.639 27.7553C39.639 29.4638 39.155 31.0972 38.183 32.5102C37.4765 33.5407 38.2119 34.9389 39.4779 34.9389C39.9924 34.9389 40.4785 34.7178 40.7875 34.2768C42.097 32.3343 42.7621 30.0803 42.7621 27.7553C42.7621 25.4153 42.097 23.1639 40.7875 21.2514C40.4893 20.8171 40.1062 20.6021 39.7152 20.5512L39.7152 20.5512Z" id="Shape" fill="#FFFFFF" fill-rule="evenodd" stroke="none" />
    </g>
  </g>
</svg>