<?xml version="1.0" encoding="utf-8"?>
<svg width="48px" height="48px" viewBox="0 0 48 48" version="1.1" xmlns:xlink="http://www.w3.org/1999/xlink" xmlns="http://www.w3.org/2000/svg">
  <defs>
    <path d="M0 0L48 0L48 48L0 48L0 0Z" id="path_1" />
    <clipPath id="mask_1">
      <use xlink:href="#path_1" />
    </clipPath>
  </defs>
  <g id="Soundcloud-icon">
    <path d="M0 0L48 0L48 48L0 48L0 0Z" id="Background" fill="none" fill-rule="evenodd" stroke="none" />
    <g clip-path="url(#mask_1)">
      <path d="M10 33.0178C10.596 33.0178 11.265 33.0178 12 33.0178L12 19.0408C10.89 20.0418 10.301 21.2528 10 22.1618L10 33.0178L10 33.0178ZM21 18.1048C20.325 17.7888 19.248 17.3898 18 17.2678L18 33.0168C18.976 33.0168 19.98 33.0168 21 33.0168L21 18.1048L21 18.1048ZM14 33.0178C14.943 33.0178 15.95 33.0178 17 33.0178L17 17.2398C15.827 17.2698 14.829 17.4698 14 17.7978L14 33.0178L14 33.0178ZM4 23.9528C2.822 24.8488 2 26.3028 2 27.9918C2 29.5778 2.795 30.9788 4 31.8968L4 23.9528L4 23.9528ZM40.995 22.0158C39.551 22.0158 38.712 22.5368 38.712 22.5368C38.712 22.5368 37.873 14.0488 29.441 14.0488C24.535 14.0488 22.611 16.7528 22 17.9458L22 33.0168C30.825 33.0168 40.297 33.0168 40.297 33.0168C40.297 33.0168 46.166 32.9228 46.166 27.5638C46.166 23.4388 42.439 22.0158 40.995 22.0158L40.995 22.0158ZM8 23.0998C7.605 23.0488 7.158 23.0118 6.659 23.0118C6.436 23.0118 6.218 23.0488 6 23.0848L6 32.8518C6.423 32.9558 6.861 33.0178 7.311 33.0178C7.462 33.0178 7.704 33.0178 8 33.0178L8 23.0998L8 23.0998Z" id="Shape" fill="#FF5722" fill-rule="evenodd" stroke="none" />
    </g>
  </g>
</svg>