<?xml version="1.0" encoding="utf-8"?>
<svg width="48px" height="48px" viewBox="0 0 48 48" version="1.1" xmlns:xlink="http://www.w3.org/1999/xlink" xmlns="http://www.w3.org/2000/svg">
  <defs>
    <path d="M0 0L48 0L48 48L0 48L0 0Z" id="path_1" />
    <clipPath id="mask_1">
      <use xlink:href="#path_1" />
    </clipPath>
  </defs>
  <g id="Tiktok-icon">
    <path d="M0 0L48 0L48 48L0 48L0 0Z" id="Background" fill="none" fill-rule="evenodd" stroke="none" />
    <g clip-path="url(#mask_1)">
      <path d="M10.904 6L37.095 6C39.804 6 42 8.196 42 10.904L42 37.095C42 39.804 39.804 42 37.096 42L10.904 42C8.196 42 6 39.804 6 37.096L6 10.904C6 8.196 8.196 6 10.904 6L10.904 6Z" id="Shape" fill="#212121" fill-rule="evenodd" stroke="none" />
      <path d="M29.2083 20.6065C30.7843 21.7325 32.7153 22.3945 34.8003 22.3945L34.8003 18.3835C34.4053 18.3835 34.0123 18.3425 33.6263 18.2605L33.6263 21.4175C31.5413 21.4175 29.6113 20.7545 28.0343 19.6295L28.0343 27.8135C28.0343 31.9075 24.7133 35.2265 20.6173 35.2265C19.0893 35.2265 17.6683 34.7645 16.4883 33.9725C17.8353 35.3485 19.7133 36.2025 21.7913 36.2025C25.8873 36.2025 29.2083 32.8835 29.2083 28.7895L29.2083 20.6065L29.2083 20.6065L29.2083 20.6065ZM30.6573 16.5605C29.8523 15.6815 29.3233 14.5445 29.2083 13.2875L29.2083 12.7715L28.0953 12.7715C28.3753 14.3685 29.3313 15.7335 30.6573 16.5605L30.6573 16.5605L30.6573 16.5605ZM19.0793 30.8315C18.6293 30.2415 18.3863 29.5205 18.3873 28.7785C18.3873 26.9055 19.9063 25.3875 21.7803 25.3875C22.1293 25.3875 22.4763 25.4405 22.8093 25.5465L22.8093 21.4465C22.4203 21.3935 22.0283 21.3705 21.6353 21.3785L21.6353 24.5695C21.3023 24.4635 20.9553 24.4105 20.6053 24.4105C18.7313 24.4105 17.2123 25.9285 17.2123 27.8015C17.2133 29.1265 17.9723 30.2735 19.0793 30.8315L19.0793 30.8315Z" id="Shape" fill="#EC407A" fill-rule="evenodd" stroke="none" />
      <path d="M28.034 19.6295C29.61 20.7555 31.541 21.4175 33.626 21.4175L33.626 18.2605C32.462 18.0125 31.432 17.4045 30.657 16.5595C29.331 15.7325 28.376 14.3685 28.096 12.7715L25.173 12.7715L25.173 28.7895C25.166 30.6565 23.65 32.1685 21.78 32.1685C20.678 32.1685 19.699 31.6435 19.079 30.8305C17.972 30.2725 17.213 29.1255 17.213 27.8015C17.213 25.9285 18.732 24.4105 20.606 24.4105C20.965 24.4105 21.311 24.4665 21.636 24.5695L21.636 21.3795C17.612 21.4625 14.376 24.7485 14.376 28.7905C14.376 30.8085 15.182 32.6375 16.49 33.9735C17.67 34.7655 19.091 35.2275 20.619 35.2275C24.715 35.2275 28.036 31.9085 28.036 27.8145L28.034 19.6295L28.034 19.6295L28.034 19.6295Z" id="Shape" fill="#FFFFFF" fill-rule="evenodd" stroke="none" />
      <path d="M33.6262 18.2619L33.6262 17.4079C32.5762 17.4099 31.5482 17.1159 30.6572 16.5599C31.4452 17.4229 32.4832 18.0179 33.6262 18.2619L33.6262 18.2619ZM28.0952 12.7719C28.0682 12.6189 28.0482 12.4659 28.0342 12.3109L28.0342 11.7949L23.9982 11.7949L23.9982 27.8139C23.9922 29.6809 22.4752 31.1929 20.6052 31.1929C20.0562 31.1929 19.5382 31.0629 19.0792 30.8309C19.6992 31.6439 20.6782 32.1689 21.7802 32.1689C23.6502 32.1689 25.1662 30.6569 25.1732 28.7899L25.1732 12.7719L28.0952 12.7719L28.0952 12.7719ZM21.6352 21.3799L21.6352 20.4709C21.2982 20.4249 20.9582 20.4019 20.6172 20.4019C16.5202 20.4019 13.2002 23.7209 13.2002 27.8149C13.2002 30.3819 14.5052 32.6439 16.4882 33.9739C15.1802 32.6379 14.3742 30.8089 14.3742 28.7909C14.3742 24.7489 17.6112 21.4629 21.6352 21.3799L21.6352 21.3799Z" id="Shape" fill="#81D4FA" fill-rule="evenodd" stroke="none" />
    </g>
  </g>
</svg>