<?xml version="1.0" encoding="utf-8"?>
<svg width="50px" height="50px" viewBox="0 0 50 50" version="1.1" xmlns:xlink="http://www.w3.org/1999/xlink" xmlns="http://www.w3.org/2000/svg">
  <defs>
    <path d="M0 0L48 0L48 48L0 48L0 0Z" id="path_1" />
    <clipPath id="mask_1">
      <use xlink:href="#path_1" />
    </clipPath>
  </defs>
  <g id="Instagram-icon" transform="translate(1 1)">
    <path d="M0 0L48 0L48 48L0 48L0 0Z" id="Background" fill="none" fill-rule="evenodd" stroke="none" />
    <g clip-path="url(#mask_1)">
      <path d="M41.6704 13.48C41.2704 13.74 40.7004 13.98 40.4604 14.25C40.3704 14.34 40.3204 14.44 40.3404 14.54L40.3404 15.57L40.0404 16.58L39.7404 17.58L39.4104 18.68L38.7304 20.93L38.0704 23.15L37.5704 24.82C37.5704 25.08 37.5604 25.34 37.5404 25.59C37.4704 26.55 37.2704 27.47 36.9504 28.33C36.7604 28.86 36.5304 29.37 36.2504 29.85C36.1504 30.04 36.0304 30.23 35.9104 30.41C35.5104 31.04 35.0304 31.62 34.5004 32.13C34.0904 32.54 33.6404 32.92 33.1504 33.24C33.1504 33.24 33.1504 33.24 33.1404 33.24C33.0604 33.31 32.9704 33.37 32.8704 33.42C32.5604 33.63 32.2304 33.81 31.8904 33.97C31.6604 34.09 31.4304 34.19 31.1904 34.28C31.1404 34.31 31.0804 34.33 31.0304 34.35C30.4604 34.62 29.8004 34.8 29.1404 34.89C29.1004 34.9 29.0704 34.9 29.0304 34.91C28.6304 34.98 28.2404 35.04 27.8404 35.07C27.6604 35.09 27.4704 35.1 27.2904 35.1L26.5804 35.06L23.1604 34.88C23.1604 34.87 23.1504 34.88 23.1504 34.88L21.4304 34.79C21.3004 34.79 21.1604 34.79 21.0304 34.78C20.4904 34.76 19.9704 34.7 19.4504 34.59C19.4404 34.59 19.4404 34.59 19.4404 34.59C18.4904 34.41 17.5804 34.09 16.7304 33.66C16.2604 33.42 15.8004 33.15 15.3704 32.84C15.1904 32.71 15.0204 32.57 14.8504 32.42C14.3704 32.02 13.9404 31.59 13.5404 31.15C13.4804 31.09 13.4304 31.03 13.3804 30.97C13.3204 30.91 13.2604 30.84 13.2104 30.78C12.8304 30.3 12.5104 29.81 12.2504 29.29C12.0104 28.83 11.8204 28.34 11.6704 27.8C11.6104 27.61 11.5604 27.43 11.5204 27.23C11.5104 27.22 11.5004 27.2 11.5004 27.18C11.4004 26.77 11.3104 26.34 11.2604 25.91C11.2004 25.58 11.1704 25.25 11.1704 24.91C11.1504 24.78 11.1504 24.64 11.1504 24.51L13.0604 21.56L14.9304 18.68L15.7804 17.37L16.5504 16.19L16.8104 15.78L16.8104 14.75C16.8304 14.52 16.8404 14.28 16.8304 14.06C16.8204 13.36 16.6804 12.68 16.4504 12.03C16.2304 11.34 15.9204 10.69 15.6004 10.09C15.2204 9.40001 14.8204 8.78001 14.4904 8.22001C14.0004 7.4 13.6604 6.73 13.7504 6.26C14.4704 6.09 15.2304 6 16.0004 6L32.0004 6C36.1804 6 39.7804 8.6 41.2704 12.26C41.4304 12.65 41.5704 13.06 41.6704 13.48L41.6704 13.48Z" id="Shape" fill="#304FFE" stroke="none" />
      <path d="M42.0001 16L42.0001 16.27L40.6201 17.07L39.7401 17.58L38.7701 18.14L36.8301 19.27L34.9301 20.37L32.9901 21.49L32.2201 21.94C32.2201 22.42 32.1001 22.86 31.8801 23.26C31.5701 23.84 31.0501 24.32 30.3901 24.73C29.7201 25.14 28.9001 25.47 27.9801 25.71C27.9801 25.71 27.9801 25.7 27.9701 25.71C24.4101 26.63 19.5501 26.21 17.1901 24.45C16.5301 23.96 16.0701 23.36 15.8701 22.67C15.8101 22.44 15.7801 22.19 15.7801 21.94L15.7801 14.75C15.7901 14.6 15.6901 14.45 15.5101 14.3C14.9701 13.87 13.7001 13.46 12.2801 13.05C11.1701 12.74 9.98012 12.43 8.98012 12.13C8.19012 11.89 7.52012 11.65 7.12012 11.42C7.30012 11.07 7.51012 10.72 7.73012 10.39C9.13012 8.34 11.2701 6.83 13.7501 6.26C14.4701 6.09 15.2301 6 16.0001 6L26.8001 6C32.1701 6.94 37.1201 9.13 41.2701 12.26C41.4301 12.65 41.5701 13.06 41.6701 13.48C41.8501 14.14 41.9601 14.82 41.9901 15.53C42.0001 15.68 42.0001 15.84 42.0001 16L42.0001 16Z" id="Shape" fill="#4928F4" stroke="none" />
      <path d="M41.9999 16.0005L41.9999 20.4105L41.7799 21.0905L41.0299 23.4205L40.2499 25.8205L39.8399 27.1005L39.4599 28.2905L39.0899 29.4205L38.7299 30.5405L38.5399 31.1305L38.2899 31.9105C38.2899 32.6705 38.2699 33.3405 38.2199 33.9106C38.2099 33.9706 38.1999 34.0305 38.1999 34.0906C38.1399 34.6206 38.0599 35.0705 37.9299 35.4506C37.9199 35.5106 37.8999 35.5705 37.8799 35.6206C37.6199 36.3406 37.2299 36.8006 36.6499 37.1005C36.5099 37.1806 36.3499 37.2405 36.1799 37.3006C35.6499 37.4806 34.9799 37.5705 34.1599 37.6206C33.5599 37.6606 32.8699 37.6705 32.0899 37.6705L31.3999 37.6705L30.2099 37.6206L29.9999 37.6105L27.8299 37.5205L25.6299 37.4305L18.3799 37.1305L16.4999 37.0505L16.2399 37.0505C15.4599 37.0406 14.7899 36.9905 14.2099 36.9105C13.3699 36.7805 12.7199 36.5605 12.2299 36.2305C11.5299 35.7805 11.1199 35.1205 10.8799 34.2005C10.8199 33.9805 10.7699 33.7505 10.7399 33.5005C10.6399 32.9205 10.5899 32.2505 10.5599 31.5005C10.5599 31.3505 10.5599 31.2005 10.5499 31.0406C10.5399 31.0306 10.5499 31.0306 10.5499 31.0306L10.5499 30.4505C10.5399 30.1605 10.5399 29.8605 10.5399 29.5506L10.5899 27.9405L10.6199 26.7906L10.6599 25.4505L10.6599 25.2605L10.7299 22.8005L10.7999 20.3405L10.8699 18.0305L10.9299 15.7605L10.9499 15.1605C10.9499 14.8505 9.89992 14.6705 8.72992 14.5205C7.79992 14.4005 6.77992 14.2905 6.16992 14.1505C6.21992 13.9205 6.26992 13.6905 6.32992 13.4705C6.50992 12.7505 6.77992 12.0705 7.11992 11.4205C7.29992 11.0705 7.50992 10.7205 7.72992 10.3905C9.88992 9.44055 12.1399 8.70055 14.4899 8.22055C16.5499 7.79055 18.6999 7.56055 20.9199 7.56055C28.2799 7.56055 35.0799 10.0505 40.4599 14.2505C40.9799 14.6505 41.4899 15.0805 41.9899 15.5305C41.9999 15.6805 41.9999 15.8405 41.9999 16.0005L41.9999 16.0005Z" id="Shape" fill="#6200EA" stroke="none" />
      <path d="M42 18.3694L42 22.9094L41.45 23.9694L40.4 26.0194L39.84 27.0994L39.33 28.0894L39.11 28.5194C39.11 28.8294 39.11 29.1294 39.09 29.4194C39.09 29.8494 39.07 30.2594 39.04 30.6394C39 31.0894 38.94 31.4994 38.88 31.8794C38.73 32.6694 38.52 33.3494 38.22 33.9094C38.18 33.9794 38.14 34.0494 38.1 34.1094C37.99 34.2894 37.86 34.4594 37.72 34.6194C37.54 34.8394 37.34 35.0294 37.11 35.1894C36.77 35.4494 36.37 35.6594 35.91 35.8194C35.34 36.0294 34.68 36.1694 33.9 36.2494C33.39 36.2994 32.83 36.3294 32.22 36.3294L31.8 36.3494L29.72 36.4694L29.71 36.4694L27.5 36.5994L25.25 36.7294L22.15 36.9094L18.38 37.1294L17.83 37.1594C17.32 37.1594 16.84 37.1294 16.38 37.0694C16.33 37.0594 16.29 37.0494 16.24 37.0494C15.56 36.9394 14.94 36.7594 14.38 36.5094C13.7 36.2094 13.11 35.8094 12.61 35.3294C12.17 34.8994 11.79 34.4094 11.48 33.8594C11.41 33.7294 11.34 33.6094 11.28 33.4694C10.98 32.8794 10.74 32.2194 10.56 31.4994C10.53 31.3794 10.5 31.2494 10.48 31.1194C10.42 30.8894 10.37 30.6494 10.34 30.3994C10.23 29.7594 10.17 29.0794 10.14 28.3694L10.14 28.3594C10.13 28.0694 10.12 27.7894 10.12 27.4894L9.63 26.3194L9.56 26.1394L9.5 25.9894L8.75 24.1994L8.63 23.9094L7.91 22.1794L7.11 20.2494C7.11 20.2494 7.11 20.2494 7.1 20.2494L6.29 18.2994L6 17.5894L6 15.9994C6 15.3694 6.06 14.7494 6.17 14.1494C6.22 13.9194 6.27 13.6894 6.33 13.4694C7.18 12.9794 8.07 12.5294 8.98 12.1294C11.06 11.1994 13.29 10.5094 15.6 10.0894C17.32 9.77937 19.11 9.60938 20.92 9.60938C28.23 9.60938 34.86 12.2594 40.04 16.5794C40.24 16.7394 40.43 16.8994 40.62 17.0694C41.09 17.4794 41.55 17.9094 42 18.3694L42 18.3694Z" id="Shape" fill="#673AB7" stroke="none" />
      <path d="M42 21.3499L42 26.4899L41.43 27.6799L40.35 29.9299L40.34 29.9599C40.34 30.3899 40.32 30.7799 40.29 31.1299C40.19 32.2799 39.91 33.0099 39.45 33.4599C39.12 33.7999 38.71 33.9899 38.2 34.0899C38.17 34.0999 38.13 34.0999 38.1 34.1099C37.94 34.1399 37.77 34.1599 37.59 34.1599C36.97 34.2199 36.24 34.1799 35.4 34.1199C35.31 34.1199 35.21 34.1099 35.11 34.0999C34.5 34.0599 33.85 34.0199 33.13 33.9899C32.74 33.9799 32.33 33.9699 31.91 33.9699L31.89 33.9699L30.88 34.0499L30.87 34.0499L28.6 34.2099L26.01 34.4099L25.63 34.4399L22.6 34.6599L21.03 34.7799L19.48 34.8899C19.21 34.8899 18.95 34.8899 18.69 34.8799C18.69 34.8799 18.68 34.8699 18.68 34.8799C17.55 34.8599 16.54 34.7899 15.64 34.6199C14.81 34.4799 14.08 34.2599 13.46 33.9299C12.82 33.6199 12.29 33.1799 11.86 32.6199C11.45 32.0699 11.15 31.3799 10.96 30.5499C10.96 30.5399 10.96 30.5399 10.96 30.5399C10.82 29.8699 10.74 29.0899 10.74 28.2099L10.59 27.9399L9.7 26.3499L9.57 26.1299L9.5 25.9899L8.57 24.3399L8.11 23.5099L7.53 22.4799L6.53 20.6899L6 19.7499L6 16.0699C6.88 15.4899 7.79 14.9799 8.73 14.5199C9.87 13.9399 11.05 13.4499 12.28 13.0499C13.62 12.6099 15.02 12.2599 16.45 12.0299C17.9 11.7899 19.39 11.6699 20.92 11.6699C27.72 11.6699 33.96 14.0999 38.77 18.1399C38.99 18.3099 39.2 18.4999 39.41 18.6799C40.25 19.4299 41.05 20.2399 41.78 21.0899C41.86 21.1799 41.94 21.2599 42 21.3499L42 21.3499Z" id="Shape" fill="#8E24AA" stroke="none" />
      <path d="M42 24.7107L42 31.9407C41.76 31.8007 41.43 31.6307 41.02 31.4507C40.8 31.3407 40.55 31.2307 40.29 31.1307C39.91 30.9607 39.5 30.8007 39.04 30.6407C38.94 30.6007 38.84 30.5707 38.73 30.5407C38.55 30.4707 38.36 30.4107 38.17 30.3507C37.58 30.1707 36.93 30.0007 36.25 29.8507C35.99 29.8007 35.72 29.7507 35.45 29.7107C34.58 29.5607 33.65 29.4707 32.68 29.4607C32.6 29.4507 32.51 29.4507 32.43 29.4507L29.86 29.4707L26.36 29.4907L26.35 29.4907L18.86 29.5507C16.48 29.5507 15.02 30.1207 14.14 30.3507C14.14 30.3507 14.13 30.3507 14.13 30.3607C13.2 30.6007 12.91 30.4507 12.83 28.8207C12.81 28.3707 12.8 27.7907 12.8 27.0807L12.24 26.6507L11.26 25.9107L10.66 25.4507L10.54 25.3607L8.88 24.1007L8.63 23.9107L8.11 23.5107L7.15 22.7907L6 21.9107L6 18.5107C6.1 18.4307 6.19 18.3607 6.29 18.3007C7.74 17.3007 9.29 16.4507 10.93 15.7607C12.39 15.1407 13.93 14.6507 15.51 14.3007C15.94 14.2107 16.38 14.1207 16.83 14.0607C18.16 13.8307 19.53 13.7207 20.92 13.7207C26.93 13.7207 32.45 15.8107 36.83 19.2707C37.49 19.7907 38.13 20.3407 38.73 20.9307C39.55 21.7107 40.32 22.5407 41.03 23.4207C41.17 23.6007 41.31 23.7807 41.45 23.9707C41.64 24.2107 41.82 24.4607 42 24.7107L42 24.7107Z" id="Shape" fill="#C2185B" stroke="none" />
      <path d="M42 28.7193L42 31.9993C42 32.6493 41.94 33.2893 41.82 33.9093C41.64 34.8293 41.33 35.7093 40.91 36.5293C40.69 36.5793 40.44 36.5793 40.16 36.5393C39.53 36.4293 38.79 36.0993 37.99 35.6693C37.95 35.6593 37.91 35.6393 37.88 35.6193C37.63 35.4893 37.37 35.3493 37.11 35.1893C36.58 34.8993 36.02 34.5793 35.46 34.2793C35.34 34.2193 35.22 34.1593 35.11 34.0993C34.47 33.7693 33.81 33.4693 33.15 33.2393C33.15 33.2393 33.15 33.2393 33.14 33.2393C33 33.1893 32.85 33.1393 32.7 33.0993C32.13 32.9393 31.55 32.8393 30.99 32.8393L29.89 32.5193L25.02 31.1093C25.02 31.1093 25.02 31.1093 25.01 31.1093L22.02 30.2393L22.01 30.2393L20.71 29.8593C16.95 29.8593 14.64 31.4593 13.52 30.8493C13.08 30.6193 12.82 30.0393 12.73 28.8993C12.7 28.5793 12.69 28.2193 12.69 27.7993L11.52 27.2293L11.47 27.2093L11.46 27.2093L10.62 26.7893L9.7 26.3493L9.63 26.3193L9.46 26.2293L7.5 25.2793L6 24.5493L6 21.1193C6.17 20.9693 6.35 20.8293 6.53 20.6893C6.72 20.5393 6.91 20.3993 7.1 20.2493C7.11 20.2493 7.11 20.2493 7.11 20.2493C8.29 19.3993 9.54 18.6493 10.87 18.0293C12.42 17.2893 14.07 16.7193 15.78 16.3493C16.03 16.2893 16.29 16.2293 16.55 16.1893C17.97 15.9193 19.43 15.7793 20.92 15.7793C26.19 15.7793 31.03 17.4893 34.93 20.3693C36.06 21.2093 37.11 22.1393 38.07 23.1493C38.86 23.9793 39.59 24.8793 40.25 25.8193C40.3 25.8893 40.35 25.9593 40.4 26.0193C40.77 26.5593 41.11 27.1093 41.43 27.6793C41.64 28.0193 41.82 28.3693 42 28.7193L42 28.7193Z" id="Shape" fill="#D81B60" stroke="none" />
      <path d="M41.82 33.9101C41.64 34.8301 41.33 35.7101 40.91 36.5301C40.72 36.9001 40.51 37.2501 40.28 37.5901C40.14 37.8001 39.99 38.0001 39.84 38.1901C39.48 38.0501 38.95 37.8501 38.3 37.6301C38.3 37.6301 38.3 37.6301 38.3 37.6201C37.81 37.4501 37.25 37.2701 36.65 37.1001C36.48 37.0501 36.31 37.0001 36.13 36.9501C35.42 36.7601 34.68 36.5901 33.96 36.4901C33.36 36.3901 32.77 36.3301 32.22 36.3301L31.76 36.2001L31.75 36.2001L29.33 35.5001L27.84 35.0701L26.18 34.5901L26.17 34.5901L25.63 34.4401L19.1 32.5601L17.22 32.0201L15.82 31.6901L13.54 31.1501L13.26 31.0801C13.26 31.0801 13.26 31.0801 13.25 31.0801L10.96 30.5501C10.96 30.5401 10.96 30.5401 10.96 30.5401L10.55 30.4501L10.34 30.4001L8.67 30.0101L8.48 29.9601L7.06 28.7901L6 27.9001L6 23.8201C6.37 23.4601 6.75 23.1201 7.15 22.7901C7.27 22.6801 7.4 22.5801 7.53 22.4801C7.65 22.3801 7.78 22.2801 7.91 22.1801C8.82 21.4901 9.78 20.8701 10.8 20.3401C12.1 19.6401 13.48 19.0801 14.93 18.6801C15.21 18.5901 15.49 18.5101 15.78 18.4501C17.42 18.0401 19.14 17.8301 20.92 17.8301C25.39 17.8301 29.55 19.1801 32.99 21.4901C34.7 22.6401 36.24 24.0201 37.54 25.5901C38.2 26.3801 38.8 27.2101 39.33 28.0901C39.38 28.1601 39.42 28.2201 39.46 28.2901C39.78 28.8201 40.08 29.3701 40.35 29.9301C40.6 30.4301 40.82 30.9301 41.02 31.4501C41.34 32.2501 41.6 33.0701 41.82 33.9101L41.82 33.9101Z" id="Shape" fill="#F50057" stroke="none" />
      <path d="M40.28 37.5906C40.14 37.8006 39.99 38.0006 39.84 38.1906C39.4 38.7406 38.92 39.2406 38.38 39.6806C37.91 40.0706 37.41 40.4206 36.88 40.7206C36.68 40.6706 36.48 40.6106 36.27 40.5306C35.61 40.3006 34.92 39.9206 34.28 39.5206C33.32 38.9106 32.49 38.2506 32.12 37.9506C31.98 37.8306 31.91 37.7706 31.91 37.7706L30.21 37.6206L30 37.6006L27.8 37.4106L25.52 37.2106L22.15 36.9106L16.81 36.4406L16.79 36.4306L14.91 35.5206L13.01 34.6006L11.48 33.8606L11.15 33.7006L10.74 33.5006L9.32 32.8106L7.43 31.9006L6.84 31.6106L6 31.3506L6 26.8806C6.47 26.3206 6.97 25.7906 7.5 25.2806C7.84 24.9606 8.2 24.6406 8.57 24.3406C8.63 24.2906 8.69 24.2406 8.75 24.2006C8.79 24.1506 8.84 24.1206 8.88 24.1006C9.47 23.6206 10.09 23.1906 10.73 22.8006C11.47 22.3306 12.25 21.9106 13.06 21.5606C13.93 21.1706 14.84 20.8406 15.78 20.5906C17.41 20.1306 19.14 19.8906 20.92 19.8906C25 19.8906 28.77 21.1306 31.88 23.2606C33.87 24.6206 35.59 26.3406 36.95 28.3306C37.4 28.9706 37.8 29.6506 38.17 30.3506C38.3 30.6106 38.43 30.8706 38.54 31.1306C38.66 31.3806 38.77 31.6306 38.88 31.8806C39.09 32.4006 39.28 32.9206 39.45 33.4606C39.77 34.4606 40.01 35.4806 40.16 36.5406C40.21 36.8906 40.25 37.2406 40.28 37.5906L40.28 37.5906Z" id="Shape" fill="#FF1744" stroke="none" />
      <path d="M38.39 39.4194C38.39 39.4995 38.39 39.5894 38.38 39.6795C37.91 40.0695 37.41 40.4194 36.88 40.7195C36.66 40.8394 36.44 40.9594 36.21 41.0594C35.98 41.1694 35.75 41.2694 35.51 41.3595C35.17 41.1795 34.71 40.9594 34.22 40.7495C33.53 40.4394 32.78 40.1594 32.2 40.0695C32.06 40.0395 31.93 40.0294 31.81 40.0294L30.17 39.8195L30.15 39.8195L28.11 39.5494L26.05 39.2794L25.09 39.1594L17.53 38.1795C17.04 38.1795 16.52 38.1495 15.98 38.0795C15.32 38.0194 14.63 37.9195 13.94 37.7794C13.26 37.6595 12.57 37.4995 11.91 37.3295C11.22 37.1695 10.54 36.9795 9.91 36.7995C9.18 36.5795 8.5 36.3695 7.93 36.1795C7.46 36.0295 7.06 35.8895 6.75 35.7794C6.57 35.3495 6.42 34.8995 6.31 34.4395C6.1 33.6595 6 32.8395 6 31.9995L6 30.3295C6.32 29.7995 6.67 29.2795 7.06 28.7895C7.77 27.8495 8.58 26.9895 9.46 26.2295C9.49 26.1895 9.53 26.1595 9.56 26.1395L9.57 26.1295C9.88 25.8495 10.2 25.5995 10.54 25.3595C10.58 25.3195 10.62 25.2895 10.66 25.2595C10.82 25.1395 10.99 25.0195 11.17 24.9095C12.6 23.9395 14.18 23.1795 15.87 22.6695C17.47 22.1895 19.16 21.9395 20.92 21.9395C24.41 21.9395 27.67 22.9695 30.39 24.7295C32.4 26.0195 34.13 27.7195 35.45 29.7095C35.61 29.9395 35.76 30.1695 35.91 30.4095C36.6 31.5795 37.17 32.8395 37.59 34.1595C37.64 34.3095 37.68 34.4594 37.72 34.6195C37.8 34.8895 37.87 35.1695 37.93 35.4495C37.95 35.5195 37.97 35.5895 37.99 35.6695C38.13 36.2995 38.23 36.9595 38.3 37.6195C38.3 37.6295 38.3 37.6295 38.3 37.6295C38.36 38.2195 38.39 38.8195 38.39 39.4194L38.39 39.4194Z" id="Shape" fill="#FF5722" stroke="none" />
      <path d="M36.3296 39.42C36.3296 39.77 36.3096 40.15 36.2696 40.53C36.2496 40.71 36.2296 40.89 36.2096 41.06C35.9796 41.17 35.7496 41.27 35.5096 41.36C35.0596 41.53 34.5996 41.67 34.1296 41.77C33.8096 41.84 33.4796 41.9 33.1496 41.93L33.1396 41.93C32.8296 41.74 32.4696 41.51 32.0996 41.25C31.4296 40.78 30.7296 40.25 30.1696 39.82C30.1596 39.81 30.1596 39.81 30.1496 39.8C29.5596 39.35 29.1396 39.01 29.1396 39.01L28.0796 39.05L26.0396 39.12L25.0896 39.16L21.2696 39.3L18.0396 39.42C17.8296 39.43 17.5796 39.43 17.2696 39.42L17.2596 39.42C16.8396 39.41 16.3396 39.38 15.7896 39.33C15.1496 39.28 14.4496 39.22 13.7396 39.15C13.0496 39.07 12.3496 38.99 11.6796 38.91C10.9396 38.83 10.2396 38.74 9.63957 38.66C9.16957 38.6 8.75957 38.55 8.42957 38.51C8.14957 38.19 7.89957 37.86 7.65957 37.5C7.29957 36.96 6.98957 36.39 6.74957 35.78C6.56957 35.35 6.41957 34.9 6.30957 34.44C6.59957 33.55 6.97957 32.71 7.42957 31.9C7.78957 31.24 8.20957 30.61 8.66957 30.01C9.11957 29.42 9.60957 28.87 10.1396 28.37L10.1396 28.36C10.2896 28.21 10.4396 28.07 10.5896 27.94C10.8696 27.68 11.1596 27.44 11.4596 27.21L11.4696 27.21C11.4796 27.19 11.4896 27.19 11.4996 27.18C11.7396 26.99 11.9896 26.82 12.2396 26.65C13.7196 25.64 15.3896 24.89 17.1896 24.45C18.3796 24.16 19.6296 24 20.9196 24C23.4596 24 25.8596 24.61 27.9696 25.71L27.9796 25.71C29.7896 26.64 31.3896 27.92 32.6796 29.46C33.3896 30.28 33.9996 31.18 34.4996 32.13C34.8496 32.77 35.1496 33.44 35.3996 34.12C35.4196 34.18 35.4396 34.23 35.4596 34.28C35.6296 34.78 35.7796 35.3 35.9096 35.82C35.9996 36.19 36.0696 36.57 36.1296 36.95C36.1496 37.07 36.1696 37.18 36.1796 37.3C36.2796 37.99 36.3296 38.7 36.3296 39.42L36.3296 39.42Z" id="Shape" fill="#FF6F00" stroke="none" />
      <path d="M34.2802 39.4205L34.2802 39.5205C34.2802 39.8605 34.2502 40.2905 34.2202 40.7505C34.1902 41.0905 34.1602 41.4405 34.1302 41.7705C33.8102 41.8405 33.4802 41.9005 33.1502 41.9305L33.1402 41.9305C32.7602 41.9805 32.3902 42.0005 32.0002 42.0005L30.2502 42.0005L29.8702 41.8905L27.9002 41.2905L25.9002 40.6905L21.2702 39.3005L19.2702 38.7005C19.2702 38.7005 18.4402 39.0305 17.2702 39.4205L17.2602 39.4205C16.8102 39.5705 16.3202 39.7305 15.8002 39.8905C15.1502 40.0805 14.4602 40.2705 13.7802 40.4205C13.0802 40.5805 12.3902 40.7005 11.7702 40.7505C11.5802 40.7705 11.3902 40.7805 11.2202 40.7805C10.6602 40.4705 10.1202 40.1005 9.63016 39.6905C9.20016 39.3305 8.80016 38.9405 8.43016 38.5105C8.15016 38.1905 7.90016 37.8605 7.66016 37.5005C7.73016 37.0505 7.81016 36.6105 7.93016 36.1805C8.23016 34.9905 8.70016 33.8505 9.32016 32.8105C9.66016 32.2205 10.0402 31.6505 10.4802 31.1205C10.4902 31.0905 10.5202 31.0605 10.5502 31.0405C10.5402 31.0305 10.5502 31.0305 10.5502 31.0305C10.6802 30.8605 10.8202 30.7005 10.9602 30.5505C10.9602 30.5405 10.9602 30.5405 10.9602 30.5405C11.3702 30.1005 11.7902 29.6805 12.2502 29.2905C12.4102 29.1605 12.5602 29.0305 12.7302 28.9005C12.7602 28.8705 12.7902 28.8505 12.8302 28.8205C15.0802 27.1005 17.8902 26.0605 20.9202 26.0605C24.3602 26.0605 27.4902 27.3505 29.8602 29.4705C31.0002 30.5005 31.9702 31.7305 32.7002 33.1005C32.7602 33.2005 32.8202 33.3105 32.8702 33.4205C32.9602 33.6005 33.0502 33.7905 33.1302 33.9905C33.4602 34.7105 33.7202 35.4705 33.9002 36.2505C33.9202 36.3305 33.9402 36.4105 33.9602 36.4905C34.0402 36.8605 34.1102 37.2405 34.1602 37.6205C34.2402 38.2105 34.2802 38.8105 34.2802 39.4205L34.2802 39.4205Z" id="Shape" fill="#FF9800" stroke="none" />
      <path d="M32.2203 39.4194C32.2203 39.6194 32.2104 39.8394 32.2003 40.0694C32.1803 40.4394 32.1503 40.8394 32.1003 41.2494C32.0803 41.4994 32.0403 41.7494 32.0004 41.9994L26.5204 41.9994L25.4604 41.8294L21.3204 41.1694L20.7304 41.0794L19.3804 40.8594C18.7904 40.8594 17.5104 41.1194 16.1604 41.3694C15.4504 41.4994 14.7304 41.6394 14.0804 41.7294C14.0004 41.7394 13.9204 41.7494 13.8504 41.7594L13.8404 41.7594C13.1404 41.6094 12.4604 41.3794 11.8204 41.0794C11.6204 40.9894 11.4204 40.8894 11.2204 40.7794C10.6604 40.4694 10.1204 40.0994 9.63035 39.6894C9.62035 39.5694 9.61035 39.4694 9.61035 39.4194C9.61035 39.1594 9.62035 38.9094 9.64035 38.6594C9.68035 38.0194 9.77035 37.3994 9.91035 36.7994C10.1304 35.8894 10.4504 35.0094 10.8804 34.1994C10.9604 34.0294 11.0504 33.8594 11.1504 33.6994C11.1904 33.6194 11.2404 33.5494 11.2804 33.4694C11.4604 33.1794 11.6604 32.8994 11.8604 32.6194C12.2804 32.0694 12.7504 31.5494 13.2504 31.0794C13.2604 31.0794 13.2604 31.0794 13.2604 31.0794C13.3004 31.0394 13.3404 30.9994 13.3804 30.9694C13.4304 30.9294 13.4704 30.8794 13.5204 30.8494C13.7204 30.6694 13.9204 30.5094 14.1304 30.3594C14.1304 30.3494 14.1404 30.3494 14.1404 30.3494C16.0304 28.9394 18.3704 28.1094 20.9204 28.1094C22.9004 28.1094 24.7404 28.6094 26.3504 29.4894L26.3604 29.4894C27.7404 30.2494 28.9404 31.2794 29.8904 32.5194C30.2604 32.9994 30.5904 33.5094 30.8704 34.0494L30.8804 34.0494C30.9304 34.1494 30.9804 34.2494 31.0304 34.3494C31.3304 34.9394 31.5704 35.5594 31.7504 36.1994L31.7604 36.1994C31.7704 36.2494 31.7904 36.2994 31.8004 36.3494C31.9204 36.7794 32.0204 37.2194 32.0904 37.6694C32.1004 37.7594 32.1104 37.8594 32.1204 37.9494C32.1903 38.4294 32.2203 38.9194 32.2203 39.4194L32.2203 39.4194Z" id="Shape" fill="#FFC107" stroke="none" />
      <path d="M30.1699 39.3099C30.1699 39.4699 30.1699 39.6399 30.1499 39.7999L30.1499 39.8099C30.1499 39.8199 30.1499 39.8199 30.1499 39.8199C30.1299 40.5399 30.0299 41.2499 29.8699 41.8899C29.8699 41.9299 29.8599 41.9599 29.8399 41.9999L25.1699 41.9999L21.3199 41.1699L20.8099 41.0599L20.7299 41.0799L16.4599 41.9599L16.2699 41.9999L15.9999 41.9999C15.3599 41.9999 14.7299 41.9399 14.1199 41.8199C14.0299 41.7999 13.9399 41.7799 13.8499 41.7599L13.8399 41.7599C13.1399 41.6099 12.4599 41.3799 11.8199 41.0799C11.7999 40.9699 11.7799 40.8599 11.7699 40.7499C11.6999 40.3199 11.6699 39.8699 11.6699 39.4199C11.6699 39.2499 11.6699 39.0799 11.6799 38.9099C11.7099 38.3699 11.7899 37.8399 11.9099 37.3299C11.9899 36.9499 12.0999 36.5799 12.2299 36.2299C12.3399 35.9199 12.4699 35.6199 12.6099 35.3299C12.7299 35.0799 12.8699 34.8399 13.0099 34.5999C13.1499 34.3699 13.2999 34.1499 13.4599 33.9299C13.8599 33.3799 14.3299 32.8699 14.8499 32.4199C15.1499 32.1599 15.4799 31.9099 15.8199 31.6899C17.2799 30.7299 19.0299 30.1699 20.9199 30.1699C21.2899 30.1699 21.6499 30.1899 21.9999 30.2399L22.0199 30.2399C23.0899 30.3599 24.0899 30.6599 25.0099 31.1099C25.0199 31.1099 25.0199 31.1099 25.0199 31.1099C26.4699 31.8199 27.6999 32.8899 28.5999 34.2099C28.7499 34.4299 28.8999 34.6699 29.0299 34.9099C29.1399 35.0999 29.2399 35.2999 29.3299 35.4999C29.4699 35.8099 29.5999 36.1399 29.7099 36.4699L29.7199 36.4699C29.8299 36.8399 29.9299 37.2099 29.9999 37.5999L29.9999 37.6099C30.1099 38.1599 30.1699 38.7299 30.1699 39.3099L30.1699 39.3099Z" id="Shape" fill="#FFD54F" stroke="none" />
      <path d="M28.1097 39.5203L28.1097 39.5503C28.1097 40.1403 28.0397 40.7203 27.8997 41.2903C27.8497 41.5303 27.7797 41.7703 27.6897 42.0003L23.2097 42.0003L20.9197 41.3703L18.6297 42.0003L15.9997 42.0003C15.3597 42.0003 14.7297 41.9403 14.1197 41.8203C14.0997 41.7903 14.0897 41.7603 14.0797 41.7303C13.9397 41.3003 13.8297 40.8703 13.7797 40.4203C13.7397 40.1303 13.7197 39.8303 13.7197 39.5203C13.7197 39.4003 13.7197 39.2703 13.7397 39.1503C13.7497 38.6803 13.8197 38.2203 13.9397 37.7803C13.9997 37.4803 14.0897 37.1903 14.2097 36.9103C14.2497 36.7703 14.3097 36.6403 14.3797 36.5103C14.5297 36.1703 14.7097 35.8403 14.9097 35.5203C15.1297 35.2003 15.3697 34.9003 15.6397 34.6203C15.9597 34.2603 16.3197 33.9303 16.7297 33.6603C17.4297 33.1503 18.2297 32.7703 19.0997 32.5603C19.6797 32.4003 20.2897 32.3203 20.9197 32.3203C22.9197 32.3203 24.7097 33.1203 26.0097 34.4103C26.0597 34.4603 26.1197 34.5203 26.1697 34.5903L26.1797 34.5903C26.3197 34.7403 26.4497 34.8903 26.5797 35.0603C26.9497 35.5303 27.2597 36.0403 27.4997 36.6003C27.6197 36.8603 27.7197 37.1303 27.7997 37.4103C27.8097 37.4503 27.8197 37.4803 27.8297 37.5203C27.9697 38.0103 28.0597 38.5203 28.0797 39.0503C28.0997 39.2003 28.1097 39.3603 28.1097 39.5203L28.1097 39.5203Z" id="Shape" fill="#FFE082" stroke="none" />
      <path d="M26.0603 39.5209C26.0603 39.9309 26.0103 40.3209 25.9003 40.6909C25.8003 41.0909 25.6503 41.4709 25.4603 41.8309C25.4303 41.8909 25.3603 42.0009 25.3603 42.0009L16.4803 42.0009C16.4703 41.9909 16.4603 41.9709 16.4603 41.9609C16.3403 41.7709 16.2403 41.5809 16.1603 41.3709C15.9603 40.9109 15.8403 40.4109 15.8003 39.8909C15.7803 39.7709 15.7803 39.6409 15.7803 39.5209C15.7803 39.4609 15.7803 39.3909 15.7903 39.3309C15.8003 38.8909 15.8603 38.4709 15.9803 38.0809C16.0803 37.7209 16.2103 37.3909 16.3803 37.0709C16.3803 37.0709 16.3903 37.0609 16.3903 37.0509C16.5103 36.8409 16.6403 36.6309 16.7903 36.4309C17.2803 35.7709 17.9303 35.2309 18.6803 34.8809C18.6903 34.8809 18.6903 34.8809 18.6903 34.8809C18.9303 34.7609 19.1803 34.6609 19.4403 34.5909C19.4403 34.5909 19.4403 34.5909 19.4503 34.5909C19.9103 34.4509 20.4103 34.3809 20.9203 34.3809C21.5103 34.3809 22.0803 34.4709 22.6003 34.6609C22.7903 34.7109 22.9703 34.7909 23.1503 34.8809C23.1503 34.8809 23.1503 34.8809 23.1603 34.8809C24.0203 35.2909 24.7503 35.9309 25.2503 36.7309C25.3503 36.8809 25.4403 37.0409 25.5203 37.2109C25.5603 37.2809 25.6003 37.3609 25.6303 37.4309C25.8603 37.9509 26.0003 38.5209 26.0403 39.1209C26.0503 39.1709 26.0503 39.2209 26.0503 39.2809C26.0603 39.3609 26.0603 39.4409 26.0603 39.5209L26.0603 39.5209Z" id="Shape" fill="#FFECB3" stroke="none" />
      <g id="Group" transform="translate(11 11)">
        <path d="M19 0L7 0C3.1 0 0 3.1 0 7L0 19C0 22.9 3.1 26 7 26L19 26C22.9 26 26 22.9 26 19L26 7C26 3.1 22.9 0 19 0L19 0Z" id="Shape" fill="none" stroke="#FFFFFF" stroke-width="2" stroke-linecap="round" stroke-linejoin="round" />
        <path d="M19 5C19 4.44772 19.4477 4 20 4C20.5523 4 21 4.44772 21 5C21 5.55228 20.5523 6 20 6C19.4477 6 19 5.55228 19 5Z" id="Circle" fill="#FFFFFF" fill-rule="evenodd" stroke="none" />
      </g>
      <g id="Group" transform="translate(18 18)">
        <path d="M0 6C0 2.68629 2.68629 0 6 0C9.31371 0 12 2.68629 12 6C12 9.31371 9.31371 12 6 12C2.68629 12 0 9.31371 0 6Z" id="Circle" fill="none" fill-rule="evenodd" stroke="#FFFFFF" stroke-width="2" stroke-linecap="round" stroke-linejoin="round" />
      </g>
    </g>
  </g>
</svg>