<?xml version="1.0" encoding="utf-8"?>
<svg width="48px" height="48px" viewBox="0 0 48 48" version="1.1" xmlns:xlink="http://www.w3.org/1999/xlink" xmlns="http://www.w3.org/2000/svg">
  <defs>
    <path d="M0 0L48 0L48 48L0 48L0 0Z" id="path_1" />
    <clipPath id="mask_1">
      <use xlink:href="#path_1" />
    </clipPath>
  </defs>
  <g id="Reddit-icon">
    <path d="M0 0L48 0L48 48L0 48L0 0Z" id="Background" fill="none" fill-rule="evenodd" stroke="none" />
    <g clip-path="url(#mask_1)">
      <path d="M12.1928 19.5546C10.2528 17.8136 7.40283 17.8276 5.82783 19.5836C4.25183 21.3396 4.52683 24.6066 6.75383 26.2156L12.1928 19.5546L12.1928 19.5546ZM35.8068 19.5546C37.7458 17.8136 40.5958 17.8276 42.1718 19.5836C43.7468 21.3396 43.4738 24.6066 41.2448 26.2156L35.8068 19.5546L35.8068 19.5546ZM38.3198 6.97461C36.3868 6.97461 34.8198 8.54161 34.8198 10.4746C34.8198 12.4076 36.3868 13.9746 38.3198 13.9746C40.2528 13.9746 41.8198 12.4076 41.8198 10.4746C41.8198 8.54164 40.2528 6.97463 38.3199 6.97461L38.3198 6.97461Z" id="Shape" fill="#FFFFFF" fill-rule="evenodd" stroke="none" />
      <path d="M24.085 15.6641C17.6224 15.6623 11.6496 18.1293 8.41744 22.1354C5.1853 26.1415 5.18506 31.0777 8.41682 35.084C11.6486 39.0902 17.6211 41.5575 24.0837 41.5561C30.5464 41.558 36.5193 39.0911 39.7516 35.0851C42.9839 31.0791 42.9844 26.1429 39.7528 22.1365C36.5212 18.1302 30.5488 15.6628 24.0862 15.6641L24.085 15.6641Z" id="Shape" fill="#FFFFFF" stroke="none" />
      <g id="Group" transform="translate(14.75 23.50586)">
        <path d="M15.615 1.90735e-06C14.5844 -0.000341415 13.6319 0.549278 13.1165 1.44174C12.6011 2.33421 12.6012 3.43386 13.1166 4.32631C13.632 5.21877 14.5844 5.76837 15.615 5.768C16.646 5.76889 17.599 5.21938 18.1147 4.32668C18.6305 3.43397 18.6304 2.33387 18.1147 1.44119C17.5989 0.548512 16.6458 -0.000947952 15.6149 1.90735e-06L15.615 1.90735e-06ZM2.88496 1.90735e-06C1.85437 -0.000341415 0.901918 0.549278 0.386532 1.44174C-0.128856 2.33421 -0.128843 3.43386 0.386563 4.32631C0.90197 5.21877 1.85443 5.76837 2.88502 5.768C3.91599 5.76889 4.86902 5.21938 5.38475 4.32668C5.90048 3.43397 5.90044 2.33387 5.38467 1.44119C4.8689 0.548512 3.91583 -0.000947952 2.88487 1.90735e-06L2.88496 1.90735e-06Z" id="Shape" fill="#D84315" fill-rule="evenodd" stroke="none" />
      </g>
      <g id="Group" transform="translate(3.8291016 5.9746094)">
        <path d="M20.1731 28.927C16.9211 28.927 14.0331 28.182 12.1711 27.025C13.1951 29.069 16.3671 31.025 20.1731 31.025C23.9751 31.025 27.1491 29.069 28.1711 27.025C26.3141 28.182 23.4251 28.927 20.1731 28.927L20.1731 28.927ZM38.0011 21.051L36.8311 19.43C37.6621 18.83 38.2041 17.874 38.3191 16.807C38.4241 15.827 38.1621 14.904 37.5981 14.276C37.0271 13.639 36.2071 13.286 35.2911 13.282C34.3641 13.295 33.3971 13.647 32.6451 14.323L31.3091 12.835C32.4321 11.827 33.8541 11.312 35.3001 11.282C36.7881 11.289 38.1331 11.878 39.0861 12.94C40.0281 13.99 40.4731 15.477 40.3071 17.021C40.1321 18.651 39.2921 20.121 38.0011 21.051L38.0011 21.051ZM2.34012 21.051C1.05012 20.119 0.209116 18.65 0.0341163 17.02C-0.131884 15.477 0.313116 13.99 1.25512 12.941C2.20812 11.879 3.55212 11.29 5.04012 11.283C5.04912 11.283 5.05812 11.283 5.06712 11.283C6.50812 11.283 7.91612 11.834 9.03212 12.836L7.69612 14.324C6.94312 13.648 6.00712 13.319 5.05012 13.283C4.13412 13.287 3.31512 13.64 2.74412 14.277C2.18112 14.905 1.91812 15.827 2.02312 16.807C2.13812 17.874 2.68012 18.83 3.51112 19.431L2.34012 21.051L2.34012 21.051ZM21.1711 10.865L19.1711 10.865C19.1711 7.98 19.1711 0.317 24.1501 0.317C26.3041 0.317 27.3431 1.528 28.1021 2.413C28.7311 3.147 29.0631 3.499 29.7181 3.499L31.0881 3.499L31.0881 5.499L29.7181 5.499C28.1141 5.499 27.2651 4.509 26.5831 3.714C25.9131 2.933 25.3851 2.316 24.1491 2.316C22.1461 2.317 21.1711 5.113 21.1711 10.865L21.1711 10.865Z" id="Shape" fill="#37474F" fill-rule="evenodd" stroke="none" />
        <path d="M20.2561 10.975C29.6771 10.975 37.3411 16.206 37.3411 22.636C37.3411 29.067 29.6771 34.298 20.2561 34.298C10.8351 34.298 3.17112 29.067 3.17112 22.636C3.17112 16.206 10.8351 10.975 20.2561 10.975M20.2561 8.975C9.71512 8.975 1.17112 15.091 1.17112 22.636C1.17112 30.182 9.71612 36.298 20.2561 36.298C30.7961 36.298 39.3411 30.182 39.3411 22.636C39.3411 15.091 30.7961 8.975 20.2561 8.975L20.2561 8.975L20.2561 8.975ZM34.4911 2C35.8701 2 36.9911 3.122 36.9911 4.5C36.9911 5.878 35.8701 7 34.4911 7C33.1121 7 31.9911 5.878 31.9911 4.5C31.9911 3.122 33.1121 2 34.4911 2M34.4911 0C32.0071 0 29.9911 2.015 29.9911 4.5C29.9911 6.985 32.0071 9 34.4911 9C36.9771 9 38.9911 6.985 38.9911 4.5C38.9911 2.015 36.9781 0 34.4911 0L34.4911 0L34.4911 0Z" id="Shape" fill="#37474F" fill-rule="evenodd" stroke="none" />
      </g>
    </g>
  </g>
</svg>